<?xml version="1.0" standalone="no"?><svg xmlns="http://www.w3.org/2000/svg" viewBox="0 0 1440 320"><path fill="indianred" fill-opacity="1" d="M0,192L30,176C60,160,120,128,180,128C240,128,300,160,360,192C420,224,480,256,540,266.7C600,277,660,267,720,250.7C780,235,840,213,900,213.3C960,213,1020,235,1080,218.7C1140,203,1200,149,1260,133.3C1320,117,1380,139,1410,149.3L1440,160L1440,0L1410,0C1380,0,1320,0,1260,0C1200,0,1140,0,1080,0C1020,0,960,0,900,0C840,0,780,0,720,0C660,0,600,0,540,0C480,0,420,0,360,0C300,0,240,0,180,0C120,0,60,0,30,0L0,0Z"></path></svg>